/* XPM */
static char *result[] = {
/* columns rows colors chars-per-pixel */
"48 48 150 2 ",
"   c #060403",
".  c #080604",
"X  c #0D0905",
"o  c #0D0A08",
"O  c #120B04",
"+  c #190E04",
"@  c #1B1107",
"#  c #14110E",
"$  c #1B130C",
"%  c #171410",
"&  c #1C1611",
"*  c #1E1914",
"=  c #1F1D1B",
"-  c #221406",
";  c #22160B",
":  c #241A0D",
">  c #2C1B0A",
",  c #311C07",
"<  c #331F0B",
"1  c #221B14",
"2  c #2B1F11",
"3  c #241F19",
"4  c #34210D",
"5  c #3B240D",
"6  c #2E2214",
"7  c #26211C",
"8  c #2C251D",
"9  c #332412",
"0  c #3A2611",
"q  c #372816",
"w  c #3D2A14",
"e  c #312719",
"r  c #3C2D19",
"t  c #252322",
"y  c #2C2622",
"u  c #2E2A23",
"i  c #312B26",
"p  c #302E29",
"a  c #353027",
"s  c #35322C",
"d  c #39352D",
"f  c #3C382F",
"g  c #393631",
"h  c #3D3A33",
"j  c #3E3B39",
"k  c #41290F",
"l  c #432C14",
"z  c #4A2F14",
"x  c #442F19",
"c  c #4D3216",
"v  c #44321B",
"b  c #4C351B",
"n  c #4F391E",
"m  c #503417",
"M  c #523619",
"N  c #55391B",
"B  c #5B3E1E",
"V  c #453721",
"C  c #483720",
"Z  c #4D3A20",
"A  c #473C2F",
"S  c #543D21",
"D  c #593F21",
"F  c #423E35",
"G  c #413E3A",
"H  c #554125",
"J  c #5D4223",
"K  c #5A452B",
"L  c #5F4829",
"P  c #444036",
"I  c #4E4133",
"U  c #45423B",
"Y  c #4A473E",
"T  c #4B493F",
"R  c #5F4A32",
"E  c #5E4F3F",
"W  c #634523",
"Q  c #684724",
"!  c #654926",
"~  c #6A4A26",
"^  c #644B29",
"/  c #6D4D29",
"(  c #714E2A",
")  c #6E512C",
"_  c #73522C",
"`  c #78572F",
"'  c #614B33",
"]  c #675136",
"[  c #6B563E",
"{  c #755731",
"}  c #7A5730",
"|  c #755930",
" . c #7B5B32",
".. c #474440",
"X. c #4A4541",
"o. c #4E4B43",
"O. c #524E44",
"+. c #584F46",
"@. c #514F4C",
"#. c #545146",
"$. c #555349",
"%. c #59574C",
"&. c #5C5A4E",
"*. c #5E5B52",
"=. c #5E5B58",
"-. c #635443",
";. c #625A4F",
":. c #6E5D4A",
">. c #725E49",
",. c #615E53",
"<. c #625E5B",
"1. c #76614B",
"2. c #78644F",
"3. c #646256",
"4. c #666459",
"5. c #6A6659",
"6. c #6C6A5D",
"7. c #706E5F",
"8. c #716F60",
"9. c #747263",
"0. c #797567",
"q. c #77716A",
"w. c #797268",
"e. c #7C7A6A",
"r. c #816135",
"t. c #836338",
"y. c #817E6E",
"u. c #867E75",
"i. c #82806F",
"p. c #848271",
"a. c #888674",
"s. c #8A8976",
"d. c #8A827A",
"f. c #8E8C79",
"g. c #908E7B",
"h. c #93917E",
"j. c #979581",
"k. c #999783",
"l. c #9C9A85",
"z. c #9F9D88",
"x. c #A19F89",
"c. c #A3A28C",
"v. c #A9A791",
"b. c #ACAB93",
"n. c #B0AE96",
"m. c #B1B097",
"M. c #B4B29A",
"N. c #BAB8A0",
"B. c #C3C1A7",
"V. c None",
/* pixels */
"V.V.V.V.V.V.V.V.V.V.V.V.V.V.V.V.V.V.V.V.V.V.V.V.V.V.V.V.V.V.V.V.V.V.V.V.V.V.V.V.V.V.V.V.V.V.V.V.",
"V.V.V.V.V.V.V.V.V.V.V.V.V.V.V.V.V.V.V.V.V.V.V.V.V.V.V.V.V.V.V.V.V.V.V.V.V.V.V.V.V.V.V.V.V.V.V.V.",
"V.V.V.V.V.V.V.V.V.V.V.V.V.V.V.V.V.V.V.V.V.V.V.V.V.V.V.V.V.V.V.V.V.V.V.V.V.V.V.V.V.V.V.V.V.V.V.V.",
"V.V.V.V.V.V.V.V.V.V.V.V.V.V.V.V.V.V.V.V.V.V.V.V.V.V.V.V.V.V.V.V.V.V.V.V.V.V.V.V.V.V.V.V.V.V.V.V.",
"V.V.V.V.V.V.V.V.V.V.V.V.V.V.V.V.V.V.V.V.V.V.V.V.V.V.V.V.V.V.V.V.V.V.V.V.V.V.V.V.V.V.V.V.V.V.V.V.",
"V.V.V.V.V.V.V.V.V.V.V.V.V.V.V.V.V.V.V.V.V.V.V.V.V.V.V.V.V.V.V.V.V.V.V.V.V.V.V.V.V.V.V.V.V.V.V.V.",
"V.V.V.V.V.V.V.V.V.V.V.V.V.V.V.V.V.V.V.V.V.V.V.V.V.V.V.V.V.V.V.V.V.V.V.V.V.V.V.V.V.V.V.V.V.V.V.V.",
"V.V.V.V.V.V.V.V.V.V.V.V.V.V.V.V.V.V.V.V.V.V.V.V.V.V.V.V.V.V.V.V.V.V.V.V.V.V.V.V.V.V.V.V.V.V.V.V.",
"V.V.V.V.V.V.V.V.V.V.V.V.V.V.V.V.V.V.V.V.V.V.V.V.V.V.V.V.V.V.V.V.V.V.V.V.V.V.V.V.V.V.V.V.V.V.V.V.",
"V.V.V.V.V.V.V.V.V.V.V.V.V.V.V.V.V.V.V.V.6.h.b.M.h.l.l.j.f.V.V.V.V.V.V.V.V.V.V.V.V.V.V.V.V.V.V.V.",
"V.V.V.V.V.V.V.V.V.V.V.V.V.V.V.V.V.3.$.e.z.f.e.i.9.5.i.c.g.3.B.V.V.V.V.V.V.V.V.V.V.V.V.V.V.V.V.V.",
"V.V.V.V.V.V.V.V.V.V.V.V.V.V.V.&.i.N.k.4.y.e.0.e.8.6.5.6.4.n.c.c.l.V.V.V.V.V.V.V.V.V.V.V.V.V.V.V.",
"V.V.V.V.V.V.V.V.V.V.V.V.V.V.i.m.k.i.p.9.4.9.0.9.7.6.4.$.9.z.0.0.e.h.V.V.V.V.V.V.V.V.V.V.V.V.V.V.",
"V.V.V.V.V.V.V.V.V.V.V.V.8.a.6.h.e.8.e.p.T 3.&.&.&.$.&.P e.0.6.e.9.%.e.V.V.V.V.V.V.V.V.V.V.V.V.V.",
"V.V.V.V.V.V.V.V.V.V.V.6.b.l.,.6.e.7.6.e.#.h * # * * g h e.e.6.9.4.6.z.c.V.V.V.V.V.V.V.V.V.V.V.V.",
"V.V.V.V.V.V.V.V.V.V.3.k.i.e.3.%.6.3.T u $ $ $ o : $ ; 2 s #.3.6.4.f.9.i.h.V.V.V.V.V.V.V.V.V.V.V.",
"V.V.V.V.V.V.V.V.V.$.l.i.9.9.7.%.Y d 1 $ : 2 9 $ v q q q 6 8 d O.i.s.8.e.e.h.V.V.V.V.V.V.V.V.V.V.",
"V.V.V.V.V.V.V.V.V.$.i.5.7.9.4.U * $ 6 q v v b : L D n S b v q 6 T 5.7.7.6.e.7.V.V.V.V.V.V.V.V.V.",
"V.V.V.V.V.V.V.V.f.7.#.3.4.6.U 1 ; 6 v b J D W 6 ) ~ ~ / L ^ b w e T 4.5.%.6.8.%.V.V.V.V.V.V.V.V.",
"V.V.V.V.V.V.V.V.h.k.i.6.O.U 1 : 4 v K J ^ ~ _ q  .) / | )  .W n r e Y %.i.c.h.f.V.V.V.V.V.V.V.V.",
"V.V.V.V.V.V.V.e.f.9.f.c.U 2 $ 6 r n ) ^ ) / | q  ._ ( _ ) t./ J N q 8 P f.e.p.j.V.V.V.V.V.V.V.V.",
"V.V.V.V.V.V.V.v.p.9.0.e.p ; 6 r b J _ / _ _ | q  .( _ _ ) r._ ~ J v e u 6.e.0.k.i.V.V.V.V.V.V.V.",
"V.V.V.V.V.V.V.c.i.8.8.&.$ 9 w C N ! | / _ _ _ w _ W _ _ )  .( / ) H V $ #.7.3.e.k.V.V.V.V.V.V.V.",
"V.V.V.V.V.V.V.3.3.&.4.U $ a x D J ~ } ) _ ( _ w _ W _ _ / } ~ ~ ) J H $ P 3.&.3.s.V.V.V.V.V.V.V.",
"V.V.V.V.V.V.h.z.5.T P 7 $ b Z Q W Q { ( _ Q / r | J Q _ _ _ W W / J H ; 7 P 9.b.b.&.V.V.V.V.V.V.",
"V.V.V.V.V.V.z.e.k.k.U * * n M J B D W ~ / W ~ r ) B W / / W B B J b Z : 7 &.v.i.e.5.V.V.V.V.V.V.",
"V.V.V.V.V.V.c.8.e.9.j 7 F 4.e.d.u.u.w.y.w.5.O.7 ;.+.5.w.y.w.d.d.d.q.*.h = #.s.0.0.3.V.V.V.V.V.V.",
"V.V.V.V.V.V.v.9.0.7.j o % o...= 3 y X.g 3 1 # o h % * 3 g X.8 3 1 g j # . $.s.6.9.,.V.V.V.V.V.V.",
"V.V.V.V.V.V.x.3.3.5.g . O y i & $ & i y $ $ & o g & $ & y y & $ $ y 7 X . o.f.6.4.#.V.V.V.V.V.V.",
"V.V.V.V.V.V.a.&.*.$.s - < 0 0 0 l k k k l w w @ v l w k l w k l w 4 2 $ O T 0.,.#.T V.V.V.V.V.V.",
"V.V.V.V.V.V.i.i.e.6.g 0 b W D W W D W J W N N > ! B N W J W D W W N b 4 $ U i.e.0.3.V.V.V.V.V.V.",
"V.V.V.V.V.V.b.p.a.w.F x S ( ~ ( Q ~ ( ~ ( Q / 9  ./ ~ ( Q ( Q Q / J J w ; $.k.p.p.9.V.V.V.V.V.V.",
"V.V.V.V.V.V.c.7.9.5.P w N _ J / Q ~ ( ~ ( Q / 4 { Q W _ ~ ( ~ ~ ~ D W 0 ; $.h.9.e.4.V.V.V.V.V.V.",
"V.V.V.V.V.V.l.5.5.5.P w m _ W / Q Q ( ~ ( Q ~ 4 _ D W ( / ( ~ Q / N W 0 - $.j.6.6.&.V.V.V.V.V.V.",
"V.V.V.V.V.V.h.&.3.9.F w b _ J / Q Q ( ~ ( Q W 9 _ B W ( / ( Q W ~ D W q - O.a.3.3.&.V.V.V.V.V.V.",
"V.V.V.V.V.V.4.U o.o.d q l / B ~ W Q Q Q / W B < _ M W / W Q Q W ! M D 9 $ h %.X.U U V.V.V.V.V.V.",
"V.V.V.V.V.V.v.c.c.p.G A E :.:.2.2.>.>.-.] ' ' 2 K R ' ] [ >.>.2.2.-.-.A 3 +.v.c.c.9.V.V.V.V.V.V.",
"V.V.V.V.V.V.c.e.0.6.G G $.=.<.4.<.<.<.+.X.G G 1 <.U U X.+.=.<.<.<.=.@.G t %.f.6.9.,.V.V.V.V.V.V.",
"V.V.V.V.V.V.c.9.7.6.h % & @.X.& 1 7 X.G 1 1 % o g * & * h o.3 1 & G o.% o O.g.w.0.&.V.V.V.V.V.V.",
"V.V.V.V.V.V.z.9.5.5.g o O $ 1 $ @ + 1 1 $ % $ X 3 $ & $ 1 1 @ $ $ & % X   o.f.6.6.#.V.V.V.V.V.V.",
"V.V.V.V.V.V.f.&.,.*.d - > , , 5 , 5 , , , < < + , 5 < 4 , 5 4 4 4 , , @ + T i.,.%.O.V.V.V.V.V.V.",
"V.V.V.V.V.V.4.,.*.$.d 4 5 b z N z z m z m m z > k m m m z c c z b k c 4 ; f ,.&.&.Y V.V.V.V.V.V.",
"V.V.V.V.V.V.l.p.a.e.P 4 w M b m z m N M N m m > z M m M m N m z m c b 4 ; #.h.i.y.*.V.V.V.V.V.V.",
"V.V.V.V.V.V.i.%.&.*.F 4 w M m m m m B m m m m > z M c M m N m c c c b 4 > T e.&.&.U V.V.V.V.V.V.",
"V.V.V.V.V.V.9.o.o.o.g 4 5 M M M z m M c m c m > l N m m z M M z m c b 4 ; T 9.&.%.h V.V.V.V.V.V.",
"V.V.V.V.V.V.6.U G U a 4 5 b m M z m M k c z z > 5 m z c k M m c M c z 4 ; T 3.P U g V.V.V.V.V.V.",
"V.V.V.V.V.V.&.s g g p > 5 c c B z c z k c z c - < c z z 5 c b c N l z 4 : P $.s g p V.V.V.V.V.V.",
"V.V.V.V.V.V.g s g g a > , 5 k k 5 5 < , k < < + - < < k , 4 5 5 k 5 4 > $ p s s s p V.V.V.V.V.V."
};