/* XPM */
static char *result[] = {
/* columns rows colors chars-per-pixel */
"48 48 202 2 ",
"   c None",
".  c #FBFCFC",
"X  c #F5F7F7",
"o  c #F5F7F6",
"O  c #F5F6F6",
"+  c #FAFBFA",
"@  c #ABBDB6",
"#  c #366050",
"$  c #304E45",
"%  c #2C423D",
"&  c #96A09E",
"*  c #D8E0DD",
"=  c #B0C1BB",
"-  c #7D9D84",
";  c #366A38",
":  c #215938",
">  c #3E693C",
",  c #43683E",
"<  c #788E79",
"1  c #ADB5B3",
"2  c #EEF0EF",
"3  c #89A299",
"4  c #134532",
"5  c #3F7439",
"6  c #7CB543",
"7  c #3C8145",
"8  c #A0DA68",
"9  c #B9F582",
"0  c #618B4F",
"q  c #08211C",
"w  c #CCD1D0",
"e  c #D9E1DE",
"r  c #497061",
"t  c #6A9457",
"y  c #8CB74D",
"u  c #2B6D41",
"i  c #709D60",
"p  c #D6E48D",
"a  c #C7D88D",
"s  c #BFD988",
"d  c #ABE674",
"f  c #98D260",
"g  c #8CC654",
"h  c #8DC45E",
"j  c #62933B",
"k  c #48614C",
"l  c #707F7C",
"z  c #D3DCD9",
"x  c #A8BDB0",
"c  c #3D7146",
"v  c #70A14B",
"b  c #A2D051",
"n  c #659A72",
"m  c #9FBF91",
"M  c #F4F5B9",
"N  c #F1F3A6",
"B  c #DFEB99",
"V  c #93CB71",
"C  c #85BE56",
"Z  c #7FB745",
"A  c #B7EE77",
"S  c #97C359",
"D  c #78973C",
"F  c #25361F",
"G  c #4B5551",
"H  c #557A6C",
"J  c #3C6E49",
"K  c #B2EE7F",
"L  c #98D261",
"P  c #7EB744",
"I  c #F1F7F0",
"U  c #FAFBF9",
"Y  c #FFFFFB",
"T  c #F3F4B3",
"R  c #CAD590",
"E  c #26543F",
"W  c #588D41",
"Q  c #B0DA57",
"!  c #8E8E3F",
"~  c #6C4126",
"^  c #32180F",
"/  c #5A4A47",
"(  c #4A655D",
")  c #315A39",
"_  c #9DD865",
"`  c #B7D797",
"'  c #A4C497",
"]  c #87AA93",
"[  c #AACA76",
"{  c #A6CA6D",
"}  c #73A862",
"|  c #8CC464",
" . c #9DD464",
".. c #8A843B",
"X. c #836733",
"o. c #7C4A2B",
"O. c #36190F",
"+. c #5B4946",
"@. c #465955",
"#. c #2C4C30",
"$. c #B4F07D",
"%. c #B7F27F",
"&. c #84BD4B",
"*. c #5F9943",
"=. c #2E6B3B",
"-. c #71AA43",
";. c #8BC14F",
":. c #B7EA7D",
">. c #B4E379",
",. c #6E3E26",
"<. c #7B492A",
"1. c #88532E",
"2. c #391B10",
"3. c #214125",
"4. c #81BA48",
"5. c #ADE26B",
"6. c #A3CF53",
"7. c #A9D553",
"8. c #AAC551",
"9. c #A47845",
"0. c #A37744",
"q. c #33160E",
"w. c #50524E",
"e. c #2E321D",
"r. c #8E9441",
"t. c #99A04F",
"y. c #A4AC5C",
"u. c #96A158",
"i. c #999F4F",
"p. c #9E9D44",
"a. c #A7A64A",
"s. c #A89D49",
"d. c #A26D3F",
"f. c #9C673B",
"g. c #976238",
"h. c #956036",
"j. c #875430",
"k. c #79482A",
"l. c #62514E",
"z. c #45281B",
"x. c #9D693D",
"c. c #946036",
"v. c #8B5630",
"b. c #6C3D26",
"n. c #784629",
"m. c #89542F",
"M. c #9D683C",
"N. c #8C5730",
"B. c #A16C3E",
"V. c #945F36",
"C. c #87532E",
"Z. c #402318",
"A. c #D6D2D1",
"S. c #ADA29E",
"D. c #442416",
"F. c #704629",
"G. c #6D3E26",
"H. c #6E3F26",
"J. c #734228",
"K. c #99653B",
"L. c #9F6A3D",
"P. c #905B33",
"I. c #704126",
"U. c #4F2719",
"Y. c #AFA29E",
"T. c #DCD8D7",
"R. c #574441",
"E. c #6E4D3A",
"W. c #865733",
"Q. c #734328",
"!. c #724228",
"~. c #956138",
"^. c #9D683B",
"/. c #9B663B",
"(. c #7F4A2B",
"). c #744B3A",
"_. c #684D49",
"`. c #E0DAD9",
"'. c #928684",
"]. c #240C08",
"[. c #86522E",
"{. c #8A552F",
"}. c #59241C",
"|. c #AC928E",
" X c #DBD7D6",
".X c #B6AEAD",
"XX c #5A3222",
"oX c #552C1C",
"OX c #663321",
"+X c #693422",
"@X c #6D3A29",
"#X c #C8B6B3",
"$X c #E3DBD9",
"%X c #5B3D38",
"&X c #543530",
"*X c #693E37",
"=X c #6E4039",
"-X c #744841",
";X c #EFEDEC",
":X c #EFECEB",
">X c #F1EDEC",
",X c #F2EEED",
/* pixels */
"                                                                                                ",
"                                                                                                ",
"                                                                                                ",
"                                                                                                ",
"                                                                                                ",
"                                                                                                ",
"                                                                                                ",
"                                                                                                ",
"                                                                                                ",
"                                                                                                ",
"                                                                                                ",
"                                                                                                ",
"                                                                                                ",
"                                                                                                ",
"                                                                                                ",
"                                          . X X X X o O O +                                     ",
"                                          @ # # # # $ % % &                                     ",
"                                    * = = - ; : : ; > , , < 1 2                                 ",
"                                    3 4 4 5 6 7 7 6 8 9 9 0 q w                                 ",
"                                e r t y u i p a s d f g 9 h j k l                               ",
"                              z x c v b n m M N B V C Z A S D F G                               ",
"                              H J K L P I U Y T R E W P Q ! ~ ^ /                               ",
"                              ( ) 9 d _ ` ' ] [ { } |  ...X.o.O.+.                              ",
"                              @.#.$.%.9 &.*.=.-.;.:.:.>.,.<.1.2.+.                              ",
"                              @.3.4._ 9 $.5.6.7.8.9.9.0.1.<.,.q.+.                              ",
"                              w.e.r.t.y.u.i.p.a.s.d.f.g.h.j.k.O.+.                              ",
"                              l.z.x.c.v.b.n.m.M.d.d.h.N.B.V.C.Z.l.                              ",
"                              A.S.D.F.f.G.H.J.K.d.d.L.f.P.I.U.Y.A.                              ",
"                                T.R.E.W.Q.!.!.~.^.^.^./.(.)._.`.                                ",
"                                    '.].[.{.{.{.{.{.{.1.}.|.                                    ",
"                                     X.XXXoXoXOX+X+X+X@X#X$X                                    ",
"                                        %X&X&X*X=X=X=X-X                                        ",
"                                        ;X:X:X>X>X>X>X,X                                        ",
"                                                                                                ",
"                                                                                                ",
"                                                                                                ",
"                                                                                                ",
"                                                                                                ",
"                                                                                                ",
"                                                                                                ",
"                                                                                                ",
"                                                                                                ",
"                                                                                                ",
"                                                                                                ",
"                                                                                                ",
"                                                                                                ",
"                                                                                                ",
"                                                                                                "
};