/* XPM */
static char *fed33c16213a40b7e4574c9df0042e03vA5vUX3DAjctO5en[] = {
/* columns rows colors chars-per-pixel */
"48 48 183 2 ",
"   c None",
".  c #323443",
"X  c #383745",
"o  c #393947",
"O  c #343A4B",
"+  c #3E3D4A",
"@  c #353847",
"#  c #363E52",
"$  c #403F4B",
"%  c #364157",
"&  c #384456",
"*  c #39435A",
"=  c #384761",
"-  c #3A4A64",
";  c #3B4C6A",
":  c #3C526E",
">  c #3E5879",
",  c #48454F",
"<  c #46404C",
"1  c #41475B",
"2  c #494C5B",
"3  c #464856",
"4  c #534750",
"5  c #544A53",
"6  c #5C4F56",
"7  c #5E5459",
"8  c #604F55",
"9  c #665B5E",
"0  c #6B585C",
"q  c #705C5F",
"w  c #49566D",
"e  c #535461",
"r  c #5D5D69",
"t  c #595A66",
"y  c #465A76",
"u  c #6A5E60",
"i  c #7C5F61",
"p  c #5F616D",
"a  c #47687E",
"s  c #44657A",
"d  c #58697A",
"f  c #7E6263",
"g  c #776868",
"h  c #696B76",
"j  c #646774",
"k  c #7F6C71",
"l  c #6E707A",
"z  c #73757F",
"x  c #6D656A",
"c  c #836364",
"v  c #806F6D",
"b  c #83716E",
"n  c #97716C",
"m  c #857473",
"M  c #8A7571",
"N  c #9A7A74",
"B  c #AC7B74",
"V  c #A27670",
"C  c #B07D75",
"Z  c #978079",
"A  c #A9857B",
"S  c #B5857A",
"D  c #B8877C",
"F  c #3F5C82",
"G  c #405E86",
"H  c #42638C",
"J  c #466783",
"K  c #497187",
"L  c #4A748B",
"P  c #577082",
"I  c #466A98",
"U  c #4D7990",
"Y  c #47729F",
"T  c #487296",
"R  c #667888",
"E  c #7E7F88",
"W  c #747883",
"Q  c #4876A1",
"!  c #4876A8",
"~  c #497BB5",
"^  c #6F8C9E",
"/  c #608093",
"(  c #798796",
")  c #4F86AD",
"_  c #538DA8",
"`  c #4B81BD",
"'  c #5796B2",
"]  c #5A9BB7",
"[  c #518AB5",
"{  c #7BA2BA",
"}  c #4D86C3",
"|  c #5590C5",
" . c #569DD4",
".. c #5C9DD1",
"X. c #548AC1",
"o. c #5CA6C6",
"O. c #5BA6D9",
"+. c #5DADDC",
"@. c #5BA5D5",
"#. c #67A9C5",
"$. c #7BA1CC",
"%. c #64B9DA",
"&. c #7EBDD6",
"*. c #63B4E1",
"=. c #64BAE4",
"-. c #67C0E7",
";. c #67C3E9",
":. c #6AC6EA",
">. c #6CC9EC",
",. c #69C0E7",
"<. c #71CBEC",
"1. c #908489",
"2. c #8C919A",
"3. c #AB8D81",
"4. c #B88E81",
"5. c #B39385",
"6. c #BE9587",
"7. c #BC9A8A",
"8. c #9C9DA4",
"9. c #9CA8B2",
"0. c #8FA9B8",
"q. c #A4A5AC",
"w. c #B1B2B8",
"e. c #CB8D80",
"r. c #C59284",
"t. c #C99586",
"y. c #C29D8C",
"u. c #C99D8B",
"i. c #DA9B89",
"p. c #E59E8C",
"a. c #C6A18F",
"s. c #CEA18E",
"d. c #D0A18E",
"f. c #C7A290",
"g. c #CCA692",
"h. c #CFA894",
"j. c #D2AA95",
"k. c #DBAE98",
"l. c #DCB19A",
"z. c #E8A38F",
"x. c #ECAC95",
"c. c #EBAB95",
"v. c #E2B69D",
"b. c #EDB199",
"n. c #E5B89F",
"m. c #F1B59C",
"M. c #F3B89E",
"N. c #ECBDA3",
"B. c #F6BDA2",
"V. c #EFC0A4",
"C. c #F4C2A6",
"Z. c #F9C3A6",
"A. c #FBC6A8",
"S. c #FDCAAB",
"D. c #FECFB1",
"F. c #FED2B3",
"G. c #FED9BB",
"H. c #FED7B9",
"J. c #82ADD6",
"K. c #88B4D4",
"L. c #ABB6C4",
"P. c #BEBEC3",
"I. c #A7C1CE",
"U. c #BAC9D8",
"Y. c #92CAE7",
"T. c #96D1EB",
"R. c #9ED7F0",
"E. c #97D9F2",
"W. c #9DDBF2",
"Q. c #96D6F0",
"!. c #A0DBF2",
"~. c #CCCDD1",
"^. c #C1D3DC",
"/. c #D4D4D7",
"(. c #C5C6CA",
"). c #CBDAE7",
"_. c #D6EFF9",
"`. c #D9E7F1",
"'. c #D7F1FA",
"]. c #DEF1F7",
"[. c #E3E3E6",
"{. c #E3F5FC",
"}. c #FEFEFE",
/* pixels */
"                                                                                                ",
"                                                                                                ",
"                                                                                                ",
"                                                                                                ",
"                                              l l                                               ",
"                                            t }.}.t                                             ",
"                                        2 e r q.q.r e 2                                         ",
"                                      . h 8.~.[.[.(.w.h .                                       ",
"                                      . o 8.(././.w.q.+ .                                       ",
"                                                                                                ",
"                                                                                                ",
"                              , 5.k.k.j.s.t.t.t.u.t.t.t.r.c                                     ",
"                              g C.F.G.G.F.S.S.S.S.S.B.B.x.r.$                                   ",
"                            . g.S.F.G.G.S.S.S.S.S.S.S.S.S.m.q X                                 ",
"                            . h.S.F.G.G.S.S.S.S.S.S.S.S.S.B.c X                                 ",
"                            . j.S.S.S.S.B.m.m.Z.S.S.S.S.S.Z.q .                                 ",
"                            . h.S.S.m.b.b.x.x.x.S.S.S.S.S.M.f .                                 ",
"                            . j.S.S.m.b.x.b.x.m.A.S.S.S.Z.m.f .                                 ",
"                          . . j.C.h.C.b.f.j.g.C.j.C.S.S.A.l.< @ .                               ",
"                    K _ = g v j.v.7 l.3.m m Z V.6 k.S.S.S.V.3.A 6 H ' ' ' K                     ",
"                  & %.+.> m 5 j.B.b.C.k p z g A.b.M.S.S.S.m.c b u ) =.=.>.%.&                   ",
"                . ^ !.T.d M u f.Z.S.S.k z z x S.S.S.S.S.B.b.c N u { W.R.!.!.^ @                 ",
"                . 9.{.{.( k n t.B.Z.S.N 1.1.M S.S.S.Z.Z.x.e.B S r L.{.{.{.{.9..                 ",
"                . _ >.:.*.T O C i.M.S.M.b.b.m.A.S.M.M.c.z.6 O & [ +.>.>.>.>._ .                 ",
"                X _ :.=.=.@.I + V p.z.z.z.z.z.z.z.p.z.p.p.8 H ` @.:.:.:.>.>._ @                 ",
"                X 9.{.{.{.{.L.= w 4 4 , 4 4 , 4 4 4 4 5 4 I ~ y U.{.{.{.{.{.9..                 ",
"                . p E E ( E x - ! Y G @ . . . > Y Y Q Y Q } ~ * x E E ( ( z x .                 ",
"                  $ q c c c 0 - @.;.%.K @ . s o.:.;.:.;.*.+.} * 0 c c c c c .                   ",
"                  + N S i.z.B w Y.R.R.R.P P #.K.W.!.W.!.W.R.K.2 S z.c.S B r.+                   ",
"                  6 5.3.y.c.B j `.{.{.{.2.W ^.).{.{.{.{.{.{.).e S c.M.N.h.5.$                   ",
"                  u a.v.B.M.S ; ..=.%.>.U a ] #.<.<.<.<.<.=.| * D Z.S.S.n.y.$                   ",
"                  9 f.s.v.A.4.; ..,.<.<.U a %.=.<.<.<.<.<.*.X.1 6.S.S.v.7.3.9                   ",
"                  7 v.a.f.S.6.p )._._._.( R 0.I.'.'.'.'.'._.U.w y.S.S.f.7.g.7                   ",
"                  < 3.k.S.S.7.w &.Y.Q.Q.R P Y.Q.E.E.E.E.Q.Y.$.2 f.S.S.S.l.5.k .                 ",
"                  + N.S.S.S.7.; }  .;.;.T a ] o.>.>.;.=.O. .} * a.A.S.S.S.N.,                   ",
"                  $ 5.C.v.5 3 * I Q Q ! > ; Q Q Y Q Q Y Y ! ! # 3 6 3.S.V.5.$                   ",
"                    + 7.g.9 . % F : ; @ . . . . O . % > - H H # . x 5.j.7.$                     ",
"                      o O @   % = . @ . . . . . . . . . O > F O   X o o o                       ",
"                              @ . . . . . . . . . . . . . O O .                                 ",
"                              . . . . . . . . . . . . . . . . .                                 ",
"                              . . . . . . . . . . . . . . . . .                                 ",
"                              . . . . . . . . . . . . . . . .                                   ",
"                              . . . . . . .         . . . .                                     ",
"                                  . . . . .         . . .                                       ",
"                                                                                                ",
"                                                                                                ",
"                                                                                                ",
"                                                                                                "
};
