/* XPM */
static char *result[] = {
/* columns rows colors chars-per-pixel */
"48 48 69 1 ",
"  c #2D2122",
". c #2C2122",
"X c #271F21",
"o c #2A2021",
"O c #241D20",
"+ c #292021",
"@ c #251D20",
"# c #261E21",
"$ c #241C20",
"% c #211C20",
"& c #251C20",
"* c #281C20",
"= c #291E20",
"- c #2A1F21",
"; c #2C2022",
": c #2B2021",
"> c #221C20",
", c #231C20",
"< c #2A1E20",
"1 c #2B2022",
"2 c #261D20",
"3 c #261C20",
"4 c #1F1C20",
"5 c #1E1C20",
"6 c #271C20",
"7 c #281E20",
"8 c #281D20",
"9 c #2B1F21",
"0 c #2C2021",
"q c #291D20",
"w c #2E2324",
"e c #2E2524",
"r c #2E2424",
"t c #2D2323",
"y c #2D2223",
"u c #2B2122",
"i c #2A2022",
"p c #271D20",
"a c #2F2525",
"s c #282021",
"d c #231D20",
"f c #201C20",
"g c #2E2323",
"h c #221D20",
"j c #282022",
"k c #261F21",
"l c #281F21",
"z c #292022",
"x c #271E21",
"c c #271E20",
"v c #2A1E21",
"b c #291E21",
"n c #272021",
"m c #2E2423",
"M c #291F21",
"N c #241E20",
"B c #201D20",
"V c #241E21",
"C c #231D21",
"Z c #2D2222",
"A c #251F21",
"S c #251E21",
"D c #271D21",
"F c #2A2122",
"G c #261E20",
"H c #241D21",
"J c #251E20",
"K c #281E21",
"L c #2F2424",
/* pixels */
"                .XoO+@OOO+#O$$$%&**==-;:        ",
"                 . ; ;;;;.;-***>,**<=:11;;;;;;;;",
"222222222222222222222222222233,45>>>>>>>>>>>>>>>",
"544444444444444444444444444444444444444444444445",
"5,67========================================86$4",
"%*89.                                    0 :q**%",
"%*-;.         weeerty                   .1ui-p6%",
"%*q-;         ttrart                   usXddd,%5",
"%**-:         eraaar                   .;11-8=3f",
"%*6>#         yygwwy                       sh8*>",
"%*6>#.                                    9#h6*>",
"%**8-1                           jiXikkkkiXkO$$f",
"%**8--:;.                        lzxi2222oc333&f",
"f3*qv-.....................................v**6%",
"5%$$$$$$$$$$$$$$$$$$$$$$$$$,,,,,,,,,,,,,,,,,,,%5",
"@@@@@@@@@@@@@@@@@@@@@@@$$f54$&222222222222222222",
";;;;;;;;;;;;;;;;;;;;;;:8*3f,*q;;................",
"                    1;9b*6%$*v;;         gwwwyy ",
"                  uusnnk$,4$*-1.        ymrratt ",
"                  :ix2233%5$*=;         yrraaay ",
"                      +2=6f$*6@M        yggrrry ",
"                     :N%*6%$*3B+                ",
"            .........is@63f$**pM:               ",
"           iXkVjCCCCzCd>>>4$**-00.;             ",
"            ;;:;::::.:=**6f,**-=:.;             ",
"bbbbbbbbbbbbbbbbbbbbbb866>44&3pppccccccccccccccc",
"fffffffffffffffffffffffff45544444444444444444444",
"5%$$$$$$$$$$$$$$$$$$$$$$$$$$$$$$$$$$$$$$$$$$$$%5",
"f68:.....................................;.;=*6%",
"%*b:;.        ymmmtyZ                    ;.9v8*>",
"%*<9;         grrarty                  u+sAAS$,4",
"%*89;         rgeaem                   uoMxD22,4",
"%**27.        rtaaar                       u2=6%",
"%*6fA                                     9Sf6*>",
"%**379                           ..u.uuuu.FzG66%",
"%**q11;.                        .kjHzOOOO+JO,,,f",
"%6*q=-;;.                        1;:.::::;:b**6%",
"5,66p8KKKKKKKKKKKKKKKKKKKKKKKKKKKKKKKKKKKKKp66$4",
"544444444444444444444444444444444444444444444445",
"2222222222222222222222222222&&%54&&2222222222222",
".........................0;:8*6%$*<;0...........",
"rrtyZ                    1;9-**>&8-.;        yrr",
"ratyZ                  izkVVV,>f&8-9         Zrr",
"aaaw                   ;1MKKp8,4&*=;         trr",
"Laat                       i@b6%&*32-        ytr",
"                          9Sf6*>&*$Bi           ",
"                 uuF.FFFF.Fz233%&*68-0          ",
"                uXlOzO$$Oz@$$$,f&**-11.;        "
};