/* XPM */
static char *result[] = {
/* columns rows colors chars-per-pixel */
"48 48 118 2 ",
"   c #010000",
".  c #090501",
"X  c #0C0906",
"o  c #0D0D0C",
"O  c #140B03",
"+  c #1A0D03",
"@  c #130E09",
"#  c #0F100E",
"$  c #1D1106",
"%  c #13110D",
"&  c #1B120B",
"*  c #141412",
"=  c #1A1511",
"-  c #1A1A16",
";  c #1D1D19",
":  c #210F03",
">  c #231205",
",  c #2A1504",
"<  c #2D1806",
"1  c #22160B",
"2  c #25190C",
"3  c #2C1B0C",
"4  c #321B07",
"5  c #331D0A",
"6  c #391F0A",
"7  c #251C14",
"8  c #2B1E12",
"9  c #211D18",
"0  c #1F201C",
"q  c #3B220C",
"w  c #2F2010",
"e  c #23211D",
"r  c #2B241D",
"t  c #332212",
"y  c #3B2511",
"u  c #3C2815",
"i  c #30261D",
"p  c #3B2718",
"a  c #262621",
"s  c #272822",
"d  c #2C2B25",
"f  c #2F2E29",
"g  c #322C24",
"h  c #312F29",
"j  c #363025",
"k  c #34332D",
"l  c #39352C",
"z  c #393730",
"x  c #363830",
"c  c #3C3B33",
"v  c #41270E",
"b  c #43290F",
"n  c #412710",
"m  c #432A12",
"M  c #492E14",
"N  c #422E18",
"B  c #473017",
"V  c #4D3116",
"C  c #4A3319",
"Z  c #513619",
"A  c #54391C",
"S  c #5A3D1D",
"D  c #402E20",
"F  c #423224",
"G  c #433529",
"H  c #44392D",
"J  c #4A3B2D",
"K  c #5D3F20",
"L  c #413B34",
"P  c #483E36",
"I  c #3E4037",
"U  c #61411F",
"Y  c #59442E",
"T  c #43433A",
"R  c #49473E",
"E  c #46483E",
"W  c #4B483F",
"Q  c #584431",
"!  c #644423",
"~  c #4D4C42",
"^  c #514E44",
"/  c #4F5046",
"(  c #525146",
")  c #565449",
"_  c #58564B",
"`  c #5B594E",
"'  c #5E5C51",
"]  c #615E52",
"[  c #646255",
"{  c #686556",
"}  c #676558",
"|  c #696659",
" . c #6C6A5C",
".. c #706E5F",
"X. c #716F60",
"o. c #747263",
"O. c #787667",
"+. c #797768",
"@. c #7C7A6A",
"#. c #817F6E",
"$. c #82806F",
"%. c #858372",
"&. c #888674",
"*. c #8B8977",
"=. c #8E8C79",
"-. c #918E7B",
";. c #93917E",
":. c #969581",
">. c #999682",
",. c #9C9B86",
"<. c #9F9D88",
"1. c #A19F8A",
"2. c #A4A28C",
"3. c #AEAC95",
"4. c #B4B29A",
"5. c #BDBBA2",
"6. c #D0CEB2",
"7. c None",
/* pixels */
"7.7.7.7.7.7.7.7.7.7.7.7.7.7.7.7.7.7.7.7.7.7.7.7.7.7.7.7.7.7.7.7.7.7.7.7.7.7.7.7.7.7.7.7.7.7.7.7.",
"7.7.7.7.7.7.7.7.7.7.7.7.7.7.7.7.7.7.7.7.7.7.7.7.7.7.7.7.7.7.7.7.7.7.7.7.7.7.7.7.7.7.7.7.7.7.7.7.",
"7.7.7.7.7.7.7.7.7.7.7.7.7.7.7.7.7.7.7.7.7.7.7.7.7.7.7.7.7.7.7.7.7.7.7.7.7.7.7.7.7.7.7.7.7.7.7.7.",
"7.7.7.7.7.7.7.7.7.7.7.7.7.7.7.7.7.7.7.7.7.7.7.7.7.7.7.7.7.7.7.7.7.7.7.7.7.7.7.7.7.7.7.7.7.7.7.7.",
"7.7.7.7.7.7.7.7.7.7.7.7.7.7.7.7.7.7.7.7.7.7.7.7.7.7.7.7.7.7.7.7.7.7.7.7.7.7.7.7.7.7.7.7.7.7.7.7.",
"7.7.7.7.7.7.7.7.7.7.7.7.7.7.7.7.7.7.7.7.7.7.7.7.7.7.7.7.7.7.7.7.7.7.7.7.7.7.7.7.7.7.7.7.7.7.7.7.",
"7.7.7.7.7.7.7.7.7.7.7.7.7.7.7.7.7.7.7.7.7.7.7.7.7.7.7.7.7.7.7.7.7.7.7.7.7.7.7.7.7.7.7.7.7.7.7.7.",
"7.7.7.7.7.7.7.7.7.7.7.7.7.7.7.7.7.7.7.7.7.7.7.7.7.7.7.7.7.7.7.7.7.7.7.7.7.7.7.7.7.7.7.7.7.7.7.7.",
"7.7.7.7.7.7.7.7.7.7.7.7.7.7.7.7.7.7.7.7.7.7. . .` &.7.7.7.7.7.7.7.7.7.7.7.7.7.7.7.7.7.7.7.7.7.7.",
"7.7.7.7.7.7.7.7.7.7.7.7.7.7.7.7.7.7.7.7.X.>.3.4.-.,.>.:.&.7.7.7.7.7.7.7.7.7.7.7.7.7.7.7.7.7.7.7.",
"7.7.7.7.7.7.7.7.7.7.7.7.7.7.7.7.7.[ ( %.<.*.@.@.X.| &.2.=. .6.7.7.7.7.7.7.7.7.7.7.7.7.7.7.7.7.7.",
"7.7.7.7.7.7.7.7.7.7.7.7.7.7.7.' &.5.*. .@.@.o.@.X.X.|  .} 4.,.2.-.7.7.7.7.7.7.7.7.7.7.7.7.7.7.7.",
"7.7.7.7.7.7.7.7.7.7.7.7.7.c &.3.:.#.&. .| o.O.O.X. .| ) %.:.o.+.$.*.7.7.7.7.7.7.7.7.7.7.7.7.7.7.",
"7.7.7.7.7.7.7.7.7.7.7.7.o.#.o.=.O.X.@.@.~ [ ' ) ` ( ` T =.o.o.@.o.) %.7.7.7.7.7.7.7.7.7.7.7.7.7.",
"7.7.7.7.7.7.7.7.7.7.7.o.4.:.'  .+.X. .@.T k @ o o * k c &.@. .o.[ o.,.1.7.7.7.7.7.7.7.7.7.7.7.7.",
"7.7.7.7.7.7.7.7.7.7.| ,.@.+.[ ` X.' T a X             o d ( } | | =.o.&.*.7.7.7.7.7.7.7.7.7.7.7.",
"7.7.7.7.7.7.7.7.7.' 2.@.o.o.X._ R g @                     % k ~ *.#.O.O.#.-.7.7.7.7.7.7.7.7.7.7.",
"7.7.7.7.7.7.7.7.~ ' #.X.o.X.[ L & + .                     . O 7 ^ | X.X.| *.[ 7.7.7.7.7.7.7.7.7.",
"7.7.7.7.7.7.7.7.=.[ ~ [ [ | L > : + .                       O : 8 ~ | | ) X.X.7.7.7.7.7.7.7.7.7.",
"7.7.7.7.7.7.7.[ :.>.#.[ ^ c & > 2 & .                     . @ > , 5 ~ ` =.1.:.*.7.7.7.7.7.7.7.7.",
"7.7.7.7.7.7.7.=.*.O.:.,.z & : 2 9 @                         X - 2 < t ~ *.#.=.>.7.7.7.7.7.7.7.7.",
"7.7.7.7.7.7.7.2.@.o.O.O.r + 8 9 & O .                     . . % r D 5 l X.+.+.,.@.7.7.7.7.7.7.7.",
"7.7.7.7.7.7.[ <.+.X.X.^ + 9 9 @ O : .                     . O O = L D w ` X.} #.;.7.7.7.7.7.7.7.",
"7.7.7.7.7.7.[ [ [ ' } c & = @ + < , .                     . + : X & L F ~ ] ` } #.7.7.7.7.7.7.7.",
"7.7.7.7.7.7.;.,.[ R L 9 % o + 5 6 , .                     . + < < + = L z P +.4.2.( 7.7.7.7.7.7.",
"7.7.7.7.7.7.:.@.,.>.z % . + 5 v 6 , .                     . + 5 6 5 O 9 c | 1.#.+.[ 7.7.7.7.7.7.",
"7.7.7.7.7.7.:.o.+.o.k . O q V m q , .                     . + 5 m V q + - [ %.O.O.' 7.7.7.7.7.7.",
"7.7.7.7.7.7.,.o.o...k X 5 A V m 6 , .                     . + < m Z S 6 & | #.X.o.' 7.7.7.7.7.7.",
"7.7.7.7.7.7.;.[ [ } h $ N S Z m 6 , .                     . O < m Z ! Z 5 | %.| } ~ 7.7.7.7.7.7.",
"7.7.7.7.7.7.+.] ' ^ g 8 C Z V q < + .                     . O 1 m Z U U M ` X.] / ~ 7.7.7.7.7.7.",
"7.7.7.7.7.7.$.%.@.} j t N V m t 1 + .                     . . 1 t m S S S ~ #.@.+.` 7.7.7.7.7.7.",
"7.7.7.7.7.7.2.%.&.o.k w N m p 2 O > .                     . O O 8 u Z S S  .;.%.&. .7.7.7.7.7.7.",
"7.7.7.7.7.7.:.o...| k w u J w % : , .                     . O + @ i Q Z A  .%.o.o.[ 7.7.7.7.7.7.",
"7.7.7.7.7.7.-.| }  .l 3 H g % > 4 , .                     . + > $ & P Y A  .=.....` 7.7.7.7.7.7.",
"7.7.7.7.7.7.&.] } X.k i r @ > 5 6 , .                     . + < 5 $ & P Y { @.[ [ _ 7.7.7.7.7.7.",
"7.7.7.7.7.7.' W ^ ~ g - O $ 5 q 5 , .                     . O < 5 5 & & H W ) W T R 7.7.7.7.7.7.",
"7.7.7.7.7.7.2.2.2.+.h X O 5 b q 4 , .                       O < q y < & & [ 2.2.2. .7.7.7.7.7.7.",
"7.7.7.7.7.7.>.o.o.} f X $ y b q 4 , .                       O , q b q > = | $...o.` 7.7.7.7.7.7.",
"7.7.7.7.7.7.>.o.o.| f O t m b q 5 +                         O , q m V q - { &.O.o._ 7.7.7.7.7.7.",
"7.7.7.7.7.7.;.o.| | k $ q m q q , .                         . > q b V B t [ $. .| ^ 7.7.7.7.7.7.",
"7.7.7.7.7.7.%.' [ ` d 1 q y v 5 X                             X 3 y M M A ] O.] ) ^ 7.7.7.7.7.7.",
"7.7.7.7.7.7.[ [ ' ~ k 3 u m q $ o               X   X   X   X X & 5 M Z A R ] ` ` T 7.7.7.7.7.7.",
"7.7.7.7.7.7.>.%.*.o.l 3 u b < X o   X o o o X o o o o # # # # # = 7 m C Z { =.#.$.( 7.7.7.7.7.7.",
"7.7.7.7.7.7.+.( ' ` l 2 y y X X o o o # * * * - - - - - - - - ; - 9 t M Z ] ..' ` T 7.7.7.7.7.7.",
"7.7.7.7.7.7. .~ ~ ~ j 2 t $ o # # * - ; 0 0 0 a a a s s a a a a s s d p V ]  .` ( z 7.7.7.7.7.7.",
"7.7.7.7.7.7.[ T T T f 2 $ # * * * 0 0 s s f k k k k k x x k x k l k k g N ' ` T T k 7.7.7.7.7.7.",
"7.7.7.7.7.7.( l z z d & # * - 0 a f k x I I I ~ I E I I T T T T T T T T g ~ ~ z z h 7.7.7.7.7.7.",
"7.7.7.7.7.7.l k z z d % - 0 a d f I I E E ~ / / / / / / / / / / / / / / ~ z h k h h 7.7.7.7.7.7."
};