/* XPM */
static char *result[] = {
/* columns rows colors chars-per-pixel */
"48 48 188 2 ",
"   c #323443",
".  c #383846",
"X  c #353C4D",
"o  c #3B3B49",
"O  c #333748",
"+  c #363E53",
"@  c #433E4A",
"#  c #3E404E",
"$  c #37435C",
"%  c #38455E",
"&  c #3A4B64",
"*  c #3B4D6A",
"=  c #384660",
"-  c #3E536C",
";  c #3E5467",
":  c #3C5374",
">  c #3D587C",
",  c #45424D",
"<  c #4B444E",
"1  c #454451",
"2  c #4B4751",
"3  c #4C4953",
"4  c #4B4D5A",
"5  c #45495A",
"6  c #554C53",
"7  c #575056",
"8  c #52505B",
"9  c #635057",
"0  c #6C565A",
"q  c #655A5D",
"w  c #66565B",
"e  c #775D5F",
"r  c #42596C",
"t  c #545662",
"y  c #575865",
"u  c #535F6F",
"i  c #405574",
"p  c #6A5E60",
"a  c #5D616D",
"s  c #456479",
"d  c #576479",
"f  c #60626E",
"g  c #6F6062",
"h  c #7D6263",
"j  c #756666",
"k  c #606470",
"l  c #626E7F",
"z  c #6A6B76",
"x  c #706D75",
"c  c #64707F",
"v  c #78777F",
"b  c #8B6867",
"n  c #846E6C",
"m  c #886665",
"M  c #936D6A",
"N  c #88746F",
"B  c #8B7671",
"V  c #8F7973",
"C  c #967775",
"Z  c #997670",
"A  c #9F7972",
"S  c #967C77",
"D  c #94726D",
"F  c #A0756F",
"G  c #A17670",
"H  c #A77B74",
"J  c #9C8279",
"K  c #A58A7E",
"L  c #A4877D",
"P  c #B8857B",
"I  c #3F5B80",
"U  c #405E85",
"Y  c #426283",
"T  c #43638C",
"R  c #4A6182",
"E  c #4B758C",
"W  c #446893",
"Q  c #53758A",
"!  c #6E7481",
"~  c #777882",
"^  c #647E9C",
"/  c #4775A8",
"(  c #50859F",
")  c #738493",
"_  c #4E86B5",
"`  c #4E87B9",
"'  c #589AB7",
"]  c #5B91AA",
"[  c #7491B2",
"{  c #7B8BA2",
"}  c #66A3BE",
"|  c #4B83C1",
" . c #4F8CCC",
".. c #4D88C6",
"X. c #508EC5",
"o. c #5394CB",
"O. c #5598CB",
"+. c #5593C7",
"@. c #569DD5",
"#. c #5DA7C6",
"$. c #59A3D9",
"%. c #5DACDD",
"&. c #58A1D4",
"*. c #63A7D9",
"=. c #63B7DC",
"-. c #7EBED8",
";. c #64AAC6",
":. c #61B5E2",
">. c #65BDE3",
",. c #6ABBE4",
"<. c #70BEE5",
"1. c #67C3E6",
"2. c #68C5E9",
"3. c #69C8EB",
"4. c #67C4E9",
"5. c #74CBEC",
"6. c #71C0E7",
"7. c #858B96",
"8. c #95959E",
"9. c #AB8E81",
"0. c #B39385",
"q. c #BC9A8A",
"w. c #B99082",
"e. c #999CA6",
"r. c #8491A4",
"t. c #81A3B4",
"y. c #B4B5BA",
"u. c #A7A8AF",
"i. c #C48E80",
"p. c #C19D8C",
"a. c #C99888",
"s. c #D49284",
"d. c #D89585",
"f. c #E29D8B",
"g. c #C3A08E",
"h. c #CCA592",
"j. c #CFA894",
"k. c #D9AF99",
"l. c #D4A793",
"z. c #DFB19A",
"x. c #E6A18D",
"c. c #E9A691",
"v. c #EBAB94",
"b. c #E6A892",
"n. c #ECB29A",
"m. c #E6B89E",
"M. c #F1B49B",
"N. c #F4B99F",
"B. c #EDBDA2",
"V. c #E6B9A0",
"C. c #F5BDA2",
"Z. c #EFC0A4",
"A. c #F4C2A6",
"S. c #F9C3A6",
"D. c #F7C6A8",
"F. c #FAC7A9",
"G. c #FDCAAB",
"H. c #FDCEB0",
"J. c #FED2B4",
"K. c #FED6B8",
"L. c #FFDBBD",
"P. c #A2C2D7",
"I. c #B5CADC",
"U. c #93C9E9",
"Y. c #98D5EE",
"T. c #9ADAF2",
"R. c #B3CFEA",
"E. c #B4D9EB",
"W. c #B8DFF2",
"Q. c #BCE6F5",
"!. c #BFE8F7",
"~. c #C0C0C5",
"^. c #C9C9CD",
"/. c #C4D5DE",
"(. c #FFE0C3",
"). c #C1D8EE",
"_. c #C5DFF2",
"`. c #CCEAF6",
"'. c #CCEDF9",
"]. c #D3E3EB",
"[. c #E1E1E3",
"{. c #E5F6FC",
"}. c #EDF5F9",
"|. c #F6F6F6",
" X c #F1FAFE",
".X c #F9F9F9",
"XX c #E0EBF6",
"oX c None",
/* pixels */
"oXoXoXoXoXoXoXoXoXoXoXoXoXoXoXoXoXoXoXoXoXoXoXoXoXoXoXoXoXoXoXoXoXoXoXoXoXoXoXoXoXoXoXoXoXoXoXoX",
"oXoXoXoXoXoXoXoXoXoXoXoXoXoXoXoXoXoXoXoXoXoXoXoXoXoXoXoXoXoXoXoXoXoXoXoXoXoXoXoXoXoXoXoXoXoXoXoX",
"oXoXoXoXoXoXoXoXoXoXoXoXoXoXoXoXoXoXoXoXoXoXoXoXoXoXoXoXoXoXoXoXoXoXoXoXoXoXoXoXoXoXoXoXoXoXoXoX",
"oXoXoXoXoXoXoXoXoXoXoXoXoXoXoXoXoXoXoXoXoXoXoXa f oXoXoXoXoXoXoXoXoXoXoXoXoXoXoXoXoXoXoXoXoXoXoX",
"oXoXoXoXoXoXoXoXoXoXoXoXoXoXoXoXoXoXoXoXoXoXf |.|.f oXoXoXoXoXoXoXoXoXoXoXoXoXoXoXoXoXoXoXoXoXoX",
"oXoXoXoXoXoXoXoXoXoXoXoXoXoXoXoXoXoXoXoXoX  y ^.^.y   oXoXoXoXoXoXoXoXoXoXoXoXoXoXoXoXoXoXoXoXoX",
"oXoXoXoXoXoXoXoXoXoXoXoXoXoXoXoXoXoXoX  ~ u.u.~.~.y.e.~   oXoXoXoXoXoXoXoXoXoXoXoXoXoXoXoXoXoXoX",
"oXoXoXoXoXoXoXoXoXoXoXoXoXoXoXoXoXoXoX  4 y.^..X.X[.8.4   oXoXoXoXoXoXoXoXoXoXoXoXoXoXoXoXoXoXoX",
"oXoXoXoXoXoXoXoXoXoXoXoXoXoXoXoXoXoXoX  o t y y y y t .   oXoXoXoXoXoXoXoXoXoXoXoXoXoXoXoXoXoXoX",
"oXoXoXoXoXoXoXoXoXoXoXoXoXoXoXoXoXoXe F F F F G G F A G 9.0.0.K 2 oXoXoXoXoXoXoXoXoXoXoXoXoXoXoX",
"oXoXoXoXoXoXoXoXoXoXoXoXoXoXoXoXoX< d.x.N.S.S.F.F.F.G.G.H.J.J.G.L   oXoXoXoXoXoXoXoXoXoXoXoXoXoX",
"oXoXoXoXoXoXoXoXoXoXoXoXoXoXoXoX  M c.C.S.S.F.G.G.G.G.G.H.L.K.J.V., oXoXoXoXoXoXoXoXoXoXoXoXoXoX",
"oXoXoXoXoXoXoXoXoXoXoXoXoXoXoXoX. G c.F.G.G.G.G.G.G.G.G.H.(.L.K.F.3 oXoXoXoXoXoXoXoXoXoXoXoXoXoX",
"oXoXoXoXoXoXoXoXoXoXoXoXoXoXoXoX. H M.G.G.G.G.G.S.S.C.C.F.G.G.G.F.2 oXoXoXoXoXoXoXoXoXoXoXoXoXoX",
"oXoXoXoXoXoXoXoXoXoXoXoXoXoXoXoX. H v.G.G.G.G.G.S.C.N.N.S.F.G.G.D.2 oXoXoXoXoXoXoXoXoXoXoXoXoXoX",
"oXoXoXoXoXoXoXoXoXoXoXoXoXoXoXoX. H M.S.G.G.G.G.C.x.x.x.x.x.F.G.F.2 oXoXoXoXoXoXoXoXoXoXoXoXoXoX",
"oXoXoXoXoXoXoXoXoXoXoXoXoXoXoXoX  h a.M.G.G.G.F.S.C.l.C.h.C.S.F.D.2   oXoXoXoXoXoXoXoXoXoXoXoXoX",
"oXoXoXoXoXoXoXoXoXoX; ; - 5 % . < 6 J G.G.G.G.0.0.C.q.k.0.V.h.S B.6 . + & ; oXoXoXoXoXoXoXoXoXoX",
"oXoXoXoXoXoXoXoXoXs 1.1.2.:.X., q.K C.F.G.G.S.w.w.h.x x z 9.l.Z m.n e U &.>.s oXoXoXoXoXoXoXoXoX",
"oXoXoXoXoXoXoXoXX ' 3.1.:.$.X.< S < x.F.G.G.G.C.G.h.8 4 5 9.F.S.D.h 0 U @.>.' X oXoXoXoXoXoXoXoX",
"oXoXoXoXoXoXoXoXa `.`.`.'.'.R.< w.m x.M.C.G.H.G.G.h.~ e.7.9.G.G.C.e 0 ) `.'.`.a oXoXoXoXoXoXoXoX",
"oXoXoXoXoXoXoXoXd W.Q.Q.!.W.P.U n m H x.M.C.C.C.G.m.A S C a.G.C.n.w d [ W.Q.Q.u oXoXoXoXoXoXoXoX",
"oXoXoXoXoXoXoXoXr 3.3.3.5.4.:.o.: + m x.c.M.C.C.C.C.M.M.M.C.C.n.P 1 / %.>.3.2.r oXoXoXoXoXoXoXoX",
"oXoXoXoXoXoXoXoXr 5.5.5.5.5.5.O.| i e s.s.s.s.s.s.s.s.s.s.s.s.P @ r *.<.6.5.5.r oXoXoXoXoXoXoXoX",
"oXoXoXoXoXoXoXoXa }. X X X X X7.> | T @ @ , # , @ @ @ @ @ @ @ 5 I z }. X X X}.f oXoXoXoXoXoXoXoX",
"oXoXoXoXoXoXoXoX@ f k k f f k 1 :  .X._ _ _ _ _ U         Y _ ` T 1 u f f f f # oXoXoXoXoXoXoXoX",
"oXoXoXoXoXoXoXoX  0 M b M M M 6 : o.=.:.1.1.2.2.#.E + O E #.2.%.W , M M M m 0   oXoXoXoXoXoXoXoX",
"oXoXoXoXoXoXoXoXO G i.A b.c.c.m u U.Y.Y.T.Y.T.T.-.;.Q a T.T.T.U.^ 9 f.v.s.D Z   oXoXoXoXoXoXoXoX",
"oXoXoXoXoXoXoXoX  L L V.G.v.v.h ! XX{.{.{.{.{.{.]./.7.c {.{.{.{.e.9 x.n.K J 0.o oXoXoXoXoXoXoXoX",
"oXoXoXoXoXoXoXoX  9.0.G.G.S.M.h : *.3.5.5.5.5.5.;.] E s 5.,.,.*.W 9 b.C.A.q.g.< oXoXoXoXoXoXoXoX",
"oXoXoXoXoXoXoXoX, q.V k.G.G.A.n : o.:.3.3.3.3.3.=.=.E s 3.4.2.%.W w C.F.k.0.q.< oXoXoXoXoXoXoXoX",
"oXoXoXoXoXoXoXoX1 q.p.9.S.G.G.n ! ).'.'.'.'.'.'.P.t.^ ! '.'.`.`.r.q A.D.9.m.g., oXoXoXoXoXoXoXoX",
"oXoXoXoXoXoXoXoX2 g.J A.G.G.G.B d R.!.!.!.!.!.!.W.R.) l Q.Q.Q.E.{ q D.G.A.J J O oXoXoXoXoXoXoXoX",
"oXoXoXoXoXoXoXoXo 0.Z.G.G.F.G.B :  .@.$.:.4.3.3.#.( E s 3.1.$. .W a D.G.G.Z.9.. oXoXoXoXoXoXoXoX",
"oXoXoXoXoXoXoXoX  K A.G.A.n j 3 : ..X.o.O.O.O.O.O.X.> - o.o...| Y , j K G.A.K   oXoXoXoXoXoXoXoX",
"oXoXoXoXoXoXoXoXoX, N A.Z.V 2   = / I = > + X X # # O O $ * * U &   # q.A.N , oXoXoXoXoXoXoXoXoX",
"oXoXoXoXoXoXoXoXoXoX7 q q q ,   $ I > + =                 $ X & &   o q q 7 oXoXoXoXoXoXoXoXoXoX",
"oXoXoXoXoXoXoXoXoXoXoXoXoXoXoX  + : =                           $   oXoXoXoXoXoXoXoXoXoXoXoXoXoX",
"oXoXoXoXoXoXoXoXoXoXoXoXoXoXoX                                      oXoXoXoXoXoXoXoXoXoXoXoXoXoX",
"oXoXoXoXoXoXoXoXoXoXoXoXoXoXoX                                      oXoXoXoXoXoXoXoXoXoXoXoXoXoX",
"oXoXoXoXoXoXoXoXoXoXoXoXoXoXoX                                      oXoXoXoXoXoXoXoXoXoXoXoXoXoX",
"oXoXoXoXoXoXoXoXoXoXoXoXoXoXoX            oXoXoXoXoXoXoX            oXoXoXoXoXoXoXoXoXoXoXoXoXoX",
"oXoXoXoXoXoXoXoXoXoXoXoXoXoXoX            oXoXoXoXoXoXoX            oXoXoXoXoXoXoXoXoXoXoXoXoXoX",
"oXoXoXoXoXoXoXoXoXoXoXoXoXoXoX          oXoXoXoXoXoXoXoX          oXoXoXoXoXoXoXoXoXoXoXoXoXoXoX",
"oXoXoXoXoXoXoXoXoXoXoXoXoXoXoXoX    oXoXoXoXoXoXoXoXoXoX      oXoXoXoXoXoXoXoXoXoXoXoXoXoXoXoXoX",
"oXoXoXoXoXoXoXoXoXoXoXoXoXoXoXoXoXoXoXoXoXoXoXoXoXoXoXoXoXoXoXoXoXoXoXoXoXoXoXoXoXoXoXoXoXoXoXoX",
"oXoXoXoXoXoXoXoXoXoXoXoXoXoXoXoXoXoXoXoXoXoXoXoXoXoXoXoXoXoXoXoXoXoXoXoXoXoXoXoXoXoXoXoXoXoXoXoX",
"oXoXoXoXoXoXoXoXoXoXoXoXoXoXoXoXoXoXoXoXoXoXoXoXoXoXoXoXoXoXoXoXoXoXoXoXoXoXoXoXoXoXoXoXoXoXoXoX"
};