/* XPM */
static char *result[] = {
/* columns rows colors chars-per-pixel */
"48 48 38 1 ",
"  c #44353F",
". c #4B363E",
"X c #5E3537",
"o c #53363B",
"O c #5C3539",
"+ c #54393E",
"@ c #5B383C",
"# c #623536",
"$ c #663837",
"% c #623738",
"& c #653B3B",
"* c #6B3C3A",
"= c #713F3C",
"- c #6D413E",
"; c #74413D",
": c #7B453E",
"> c #363442",
", c #3E3440",
"< c #413540",
"1 c #483740",
"2 c #473841",
"3 c #4C3A41",
"4 c #533C41",
"5 c #5C3F41",
"6 c #5F4041",
"7 c #644142",
"8 c #6D4341",
"9 c #734541",
"0 c #7A4740",
"q c #7E4840",
"w c #80483F",
"e c #824940",
"r c #875144",
"t c #895646",
"y c #8A5847",
"u c #8C5C49",
"i c #8F624B",
"p c #90634C",
/* pixels */
",#O>5eeeeeeeeeerrtureeeeeeeeeeeeeeeeeeeeee=4,XX,",
",###**weeeeeeeettpppreeeeeeeeeeee::808;;80=74O >",
",##$;=;:0eeeeeerrrtteeeeeeeeeeeew@&483333*431.1>",
",X#$*=:::e0ee:e:eeee0eqeeee0wwwww::=:;:=;:;*#X#<",
">1ooOO@@O5OoOOO5O@@@@@@@@@@@OO@@55OOO#55O55OOO<>",
">>>>>>>>>>>>>>>>>>>>,>>>>>>>>>>>>>>>>>>>,>>>>>>>",
"&&&&&&&&OO<,3#$&&&&&&&&&&&&7&&$&&&&&&&&&&&&&&&&&",
"eqeeq0;*##o<##:;0eeeeeeeeeeeeeeeeeeewweewweeweee",
"eeeqq9;9&#o<#;0:eeeeeeeeeeeeeeeeeeeeeeeeeeeeeeee",
"eee591112<,<#$*:eeeeeeeeeeeeeeeeeeeeeeeeeeeeeeee",
"eee=0*=*$#1<##;;weeeeeeeeeeeeeeeeeeeeeeeeeeeeeee",
"eeeeeq044#O1##<&weeeeeeeeeyuyurreeeeeeeeeeeeeeee",
"eeeeee*1o#o #O $:eeeeeeeeerrtureeeeeeeeeeeeeeeee",
"9777-977o.> ##$==eeeeeeeerytpppreeeeeeeeeee:987:",
"&ooo5;oooo. #X#*=:=eeeeeeerrrrteeeeeeeeeeee:*&@=",
"9==0===$##o,OX$*==:=e=e=e==:::::::;::;::;:::;::=",
"o.433o31..>>11o3oo..33o1o1331.1o1o1o1313o3o.31o1",
">>>>>>,>>>>>>>>>>>>>>>>>>>>>,>>>>>>>>>>>>>>>>>>>",
">.#&$$$$$&&&#&$&&&$$&&&&$$&&&&$$&$&&$$&&&&$$##<>",
"<X#;:weeeeeeeeeeeeeeeeeeeeeeweeeeeeeeeeee::;###<",
"<X*=:eeeeeeeeeeeeeeeeeeeeeeeeeeeeeeeeeee::;==@O,",
",X$=:eeeeeeeeeeeeeeeeeeeeeeeeeeeeeeeeee9753333<>",
"<#$==:eeeeeeeeeeeeeeeeeeeeeeeeeeeeeeeeeq;;;=#&4>",
"<X#15eeeeeeeeeeyyyurreeeeeeeeeeeeeeeeeeeeee71$#<",
"<X#<@:eeeeeeeeerrtureeeeeeeeeeeeeeeeeeeeee=@<XO>",
"<X#$=;eeeeeeeeeytpppeeeeeeeeeeeeq88785555955.. >",
"<XX#=*;:eeeeeeeerrrreeeeeeeeeweee&-@9@o@@-&oooo,",
",O##*=::=e=0w=ew:e:::w::::::::::::;;0;;;;;=*##O>",
">,3111....... . 1..........11..o.......o......<>",
",<<<<<<<<<<,<<<,>>><<< <<<<1<<<<<< <<<<<<<<<<1<<",
"**====*=====**#X<>.X======;======;;==;==;=;;====",
"eeeeeeeweee==*##.>##=::eeeeeeewweeeeeeeeeeeeeeee",
"eeeeeeeee9088=#o.>X$=::eeeeeeeeeeeeeeeeeeeeeeeee",
"eeeeeeeee5=11311>>X#=;eeeeeeeeeeeeeeeeeeeeeeeeee",
"eeeeeeeee:e;;**# >X#$*;eeeeeeeeeeeeeeeeeeeeeeeee",
"eeeeeeeeeee:=2o#.>O#.3qeeeeeeeeetuuptrreeeeeeeee",
"eeeeeeeeeeq0-4oO >O#o@;:eeeeeeeetruuureeeeeeeeee",
"ee793-43336631<<>>O#$;;:eeeeeeeetrpppteeeeeeeeee",
"ee;:&;=&&&==&##O.>O#$***:;eeeeeeeeeeeeeeeeeeeeee",
"==;;;;==;===*##O >.##**=========================",
"<<<<<<<<<<<<<<<,>>>,,,,,,,,<,,,<,,,<,,,<11<<<,,<",
"><1o1...11....1... ..........................1>>",
",O$=;:::::::;:;:w:::;:::;q::;00:;:::;00:=:0=##O>",
"<#===eeeeeeeeeeeweeeeeeeeeeeeeeeeeeeeeeee=:=*##<",
"<#*=;eeeeeeeeeeeeeeeeeeeeeeeeeeeeeeeeee997555..>",
"<#$=0eeeeeeeeeeeweeeeeeeeeeeeeeeeeeeeee;-&4OoO >",
"<##O$qeeeeeeeeertrreeeeeeeeeeeeeeeeeeeeeeee;&*O>",
"<#O>7eeeeeeeeeetttirteeeeeeeeeeeeeeeeeeeee=3>O#,"
};